<svg xmlns="http://www.w3.org/2000/svg" viewBox="0 0 100 125" fill="none" x="0px" y="0px"><path d="M54.1666 70.8333C54.1666 73.1345 52.3012 75 50 75C47.6988 75 45.8333 73.1345 45.8333 70.8333C45.8333 68.5321 47.6988 66.6667 50 66.6667C52.3012 66.6667 54.1666 68.5321 54.1666 70.8333Z" fill="black"/><path d="M42.7083 40.1042C42.7083 36.5453 45.7881 33.3333 50 33.3333C54.2118 33.3333 57.2916 36.5453 57.2916 40.1042C57.2916 42.5483 55.88 44.7849 53.6024 45.9918C52.5113 46.57 50.9188 47.428 49.5528 48.7682C47.1737 51.1024 45.8333 54.2953 45.8333 57.6282V58.3333C45.8333 60.6345 47.6988 62.5 50 62.5C52.3012 62.5 54.1666 60.6345 54.1666 58.3333V57.6282C54.1666 56.5329 54.6071 55.4837 55.3889 54.7166C55.798 54.3153 56.398 53.9414 57.5043 53.3552C62.27 50.8299 65.625 45.8946 65.625 40.1042C65.625 31.5818 58.4446 25 50 25C41.5553 25 34.375 31.5818 34.375 40.1042C34.375 42.4053 36.2405 44.2708 38.5416 44.2708C40.8428 44.2708 42.7083 42.4053 42.7083 40.1042Z" fill="#525252"/><path fill-rule="evenodd" clip-rule="evenodd" d="M8.33331 50C8.33331 26.9881 26.9881 8.33333 50 8.33333C73.0118 8.33333 91.6666 26.9881 91.6666 50C91.6666 73.0119 73.0118 91.6667 50 91.6667C26.9881 91.6667 8.33331 73.0119 8.33331 50ZM50 16.6667C31.5905 16.6667 16.6666 31.5905 16.6666 50C16.6666 68.4095 31.5905 83.3333 50 83.3333C68.4095 83.3333 83.3333 68.4095 83.3333 50C83.3333 31.5905 68.4095 16.6667 50 16.6667Z" fill="#525252"/></svg>